<svg width="19" height="19" viewBox="0 0 19 19" fill="none" xmlns="http://www.w3.org/2000/svg">
<path d="M4.16323 15.9039H4.23794L7.69966 15.5885C8.07887 15.5507 8.43354 15.3836 8.70414 15.1153L16.1755 7.64394C16.4655 7.33759 16.6222 6.92878 16.6113 6.50709C16.6004 6.08539 16.4228 5.68522 16.1174 5.39424L13.8428 3.11964C13.5459 2.84078 13.1569 2.68078 12.7497 2.67007C12.3426 2.65936 11.9457 2.79867 11.6346 3.06152L4.16323 10.5329C3.89489 10.8035 3.72782 11.1581 3.69004 11.5373L3.33308 14.9991C3.3219 15.1207 3.33767 15.2432 3.37929 15.358C3.4209 15.4728 3.48732 15.577 3.57382 15.6632C3.65139 15.7401 3.74338 15.801 3.84453 15.8423C3.94567 15.8836 4.05397 15.9046 4.16323 15.9039ZM12.6889 4.28184L14.9552 6.54815L13.2949 8.16694L11.0701 5.94214L12.6889 4.28184ZM5.30053 11.6785L9.97426 7.03794L12.2157 9.27934L7.56684 13.9282L5.07639 14.1606L5.30053 11.6785Z" fill="#A2A6B0"/>
</svg>
