<svg width="19" height="19" viewBox="0 0 19 19" fill="none" xmlns="http://www.w3.org/2000/svg">
<path d="M9.29907 1.11317C10.9342 1.06268 12.5273 1.63645 13.7542 2.71864C14.9811 3.801 15.7498 5.31047 15.9036 6.93934C16.0545 8.53827 15.5992 10.133 14.634 11.4139L17.968 14.747C18.0508 14.8297 18.1166 14.9279 18.1614 15.036C18.2062 15.1443 18.2297 15.2607 18.2297 15.3778C18.2297 15.4949 18.2062 15.6114 18.1614 15.7196C18.1165 15.8277 18.0508 15.9259 17.968 16.0087C17.8853 16.0914 17.7871 16.1572 17.679 16.202C17.5707 16.2469 17.4543 16.2694 17.3372 16.2694C17.22 16.2694 17.1036 16.2469 16.9954 16.202C16.8873 16.1572 16.789 16.0914 16.7063 16.0087L13.3733 12.6747C12.0925 13.6424 10.4962 14.0991 8.89575 13.9491C7.26568 13.7962 5.75519 13.0275 4.67212 11.7997C3.58905 10.5719 3.01496 8.97714 3.06665 7.34071C3.11846 5.70411 3.79274 4.14807 4.95142 2.9911C6.10904 1.83516 7.66391 1.16377 9.29907 1.11317ZM9.50903 2.91883C8.28235 2.92383 7.10691 3.41275 6.2395 4.28016C5.37213 5.14756 4.88317 6.32303 4.87817 7.54969C4.87324 8.77629 5.35288 9.95558 6.21313 10.83C6.64353 11.2674 7.15644 11.6151 7.72192 11.8534C8.28759 12.0918 8.89521 12.2161 9.50903 12.2186C10.1227 12.2211 10.7307 12.1017 11.2981 11.868C11.8657 11.6343 12.3816 11.2904 12.8157 10.8563C13.2497 10.4223 13.5936 9.90634 13.8274 9.33875C14.061 8.77132 14.1804 8.16334 14.178 7.54969C14.1755 6.93586 14.0511 6.32824 13.8127 5.76258C13.5744 5.19708 13.2267 4.6842 12.7893 4.25379C11.9149 3.39351 10.7357 2.91387 9.50903 2.91883Z" fill="black" stroke="black" stroke-width="0.2"/>
</svg>
