<svg width="17" height="16" viewBox="0 0 17 16" fill="none" xmlns="http://www.w3.org/2000/svg">
<path d="M7.29907 0.113167C8.93419 0.0626821 10.5273 0.636446 11.7542 1.71864C12.9811 2.801 13.7498 4.31047 13.9036 5.93934C14.0545 7.53827 13.5992 9.13298 12.634 10.4139L15.968 13.747C16.0508 13.8297 16.1166 13.9279 16.1614 14.036C16.2062 14.1443 16.2297 14.2607 16.2297 14.3778C16.2297 14.4949 16.2062 14.6114 16.1614 14.7196C16.1165 14.8277 16.0508 14.9259 15.968 15.0087C15.8853 15.0914 15.7871 15.1572 15.679 15.202C15.5707 15.2469 15.4543 15.2694 15.3372 15.2694C15.22 15.2694 15.1036 15.2469 14.9954 15.202C14.8873 15.1572 14.789 15.0914 14.7063 15.0087L11.3733 11.6747C10.0925 12.6424 8.49618 13.0991 6.89575 12.9491C5.26568 12.7962 3.75519 12.0275 2.67212 10.7997C1.58905 9.57186 1.01496 7.97714 1.06665 6.34071C1.11846 4.70411 1.79274 3.14807 2.95142 1.9911C4.10904 0.835165 5.66391 0.163766 7.29907 0.113167ZM7.50903 1.91883C6.28235 1.92383 5.10691 2.41275 4.2395 3.28016C3.37213 4.14756 2.88317 5.32303 2.87817 6.54969C2.87324 7.77629 3.35288 8.95558 4.21313 9.82996C4.64353 10.2674 5.15644 10.6151 5.72192 10.8534C6.28759 11.0918 6.89521 11.2161 7.50903 11.2186C8.12267 11.2211 8.73067 11.1017 9.2981 10.868C9.86566 10.6343 10.3816 10.2904 10.8157 9.85633C11.2497 9.42229 11.5936 8.90634 11.8274 8.33875C12.061 7.77132 12.1804 7.16334 12.178 6.54969C12.1755 5.93586 12.0511 5.32824 11.8127 4.76258C11.5744 4.19708 11.2267 3.6842 10.7893 3.25379C9.9149 2.39351 8.73567 1.91387 7.50903 1.91883Z" fill="black" stroke="black" stroke-width="0.2"/>
</svg>
