<svg width="27" height="27" viewBox="0 0 27 27" fill="none" xmlns="http://www.w3.org/2000/svg">
<circle cx="13.5" cy="13.5001" r="12.5" fill="white" stroke="#CACDD8" stroke-width="2"/>
<path d="M8.16323 19.9039H8.23794L11.6997 19.5884C12.0789 19.5507 12.4335 19.3836 12.7041 19.1153L20.1755 11.6439C20.4655 11.3376 20.6222 10.9287 20.6113 10.5071C20.6004 10.0854 20.4228 9.68518 20.1174 9.39421L17.8428 7.1196C17.5459 6.84075 17.1569 6.68075 16.7497 6.67004C16.3426 6.65932 15.9457 6.79864 15.6346 7.06149L8.16323 14.5328C7.89489 14.8034 7.72782 15.1581 7.69004 15.5373L7.33308 18.999C7.3219 19.1206 7.33767 19.2432 7.37929 19.358C7.4209 19.4728 7.48732 19.577 7.57382 19.6631C7.65139 19.7401 7.74338 19.801 7.84453 19.8423C7.94567 19.8836 8.05397 19.9045 8.16323 19.9039ZM16.6889 8.28181L18.9552 10.5481L17.2949 12.1669L15.0701 9.94211L16.6889 8.28181ZM9.30053 15.6784L13.9743 11.0379L16.2157 13.2793L11.5668 17.9281L9.07639 18.1606L9.30053 15.6784Z" fill="#A2A6B0"/>
</svg>
