<svg width="67" height="21" viewBox="0 0 67 21" fill="none" xmlns="http://www.w3.org/2000/svg">
<g clip-path="url(#clip0_8_669)">
<path d="M20.9063 7.86418L16.1838 12.0733H4.48762C3.39665 12.0718 2.34285 12.4659 1.5249 13.1812L7.42398 7.92207L7.51449 7.84262L14.9052 1.24862C16.0969 0.186493 17.77 -0.165028 19.2942 0.326465C20.8185 0.817958 21.9622 2.0778 22.2948 3.63141C22.6273 5.18503 22.098 6.79638 20.9063 7.85851V7.86418Z" fill="#F15B41"/>
<path d="M4.48761 9.00703C6.96605 9.00703 8.97522 7.01634 8.97522 4.5607C8.97522 2.10507 6.96605 0.11438 4.48761 0.11438C2.00917 0.11438 0 2.10507 0 4.5607C0 7.01634 2.00917 9.00703 4.48761 9.00703Z" fill="#F99D1D"/>
<path d="M4.48755 12.0732C3.39659 12.0718 2.34278 12.4659 1.52484 13.1811L1.48703 13.2152C-0.355505 14.8571 -0.505795 17.668 1.15135 19.4936C2.80849 21.3192 5.64554 21.4681 7.48807 19.8262L16.1849 12.0744L4.48755 12.0732Z" fill="#272560"/>
<path d="M16.1777 12.0767L7.47993 19.8285C6.65636 20.5623 5.58707 20.9668 4.47949 20.9637L17.8984 20.9637C20.4868 20.9227 22.3142 18.9933 22.3142 16.5179C22.3142 14.0425 20.3485 12.1109 17.8984 12.0721L16.1777 12.0767Z" fill="#00B6BD"/>
<path d="M28.8197 17.2467C28.4461 17.2604 28.0847 17.1143 27.8279 16.846C27.5765 16.5751 27.4424 16.2178 27.4543 15.8505C27.4508 15.4806 27.5434 15.1159 27.7233 14.7914C27.8813 14.5012 28.0742 14.231 28.2979 13.9866L33.8503 7.78648H29.0105C28.5416 7.78648 28.206 7.62757 28.0221 7.312C27.8431 6.99499 27.7537 6.63622 27.7635 6.27335C27.7506 5.92363 27.8526 5.57917 28.0543 5.29146C28.2542 5.01918 28.5796 4.86469 28.9197 4.88054H37.4706C37.8321 4.86409 38.1847 4.99453 38.4463 5.24151C38.6888 5.48102 38.8118 5.82157 38.8118 6.25292C38.8221 6.58881 38.7511 6.92228 38.605 7.22573C38.4647 7.49011 38.2887 7.73449 38.082 7.95221L32.2998 14.3396H37.7786C38.1082 14.3315 38.422 14.4791 38.6233 14.7369C38.8379 15.0252 38.9462 15.3773 38.9302 15.7347C38.9458 16.1071 38.8555 16.4764 38.6693 16.8006C38.482 17.0969 38.1498 17.2478 37.6832 17.2478L28.8197 17.2467Z" fill="#272560"/>
<path d="M42.2515 17.4101C40.7298 17.4101 40.4126 16.6382 40.4126 15.9912V6.54687C40.4126 6.05309 40.5632 5.65352 40.862 5.35952C41.1608 5.06552 41.6366 4.91569 42.278 4.91569C42.8181 4.91569 43.2457 5.03714 43.5502 5.27779C43.8548 5.51844 44.0238 5.90666 44.0238 6.40612V15.9413C44.0238 16.46 43.8583 16.8414 43.5319 17.0764C43.2055 17.3114 42.786 17.4101 42.2515 17.4101ZM42.2515 3.90201C41.6585 3.90201 41.1723 3.7306 40.8045 3.39233C40.4368 3.05406 40.2448 2.58752 40.2448 2.01428C40.2307 1.50608 40.4329 1.01529 40.8022 0.661199C41.1666 0.308172 41.655 0.127686 42.2515 0.127686C42.7434 0.128745 43.2215 0.288149 43.6135 0.58174C44.041 0.892767 44.2582 1.37633 44.2582 2.01882C44.2582 2.59206 44.0697 3.05633 43.6985 3.39801C43.3273 3.73969 42.8411 3.90542 42.2515 3.90542V3.90201Z" fill="#272560"/>
<path d="M47.9912 21.0291C46.5684 21.0291 46.2672 20.2447 46.2672 19.5863V6.22675C46.255 5.80831 46.418 5.40338 46.7178 5.10749C47.0154 4.81349 47.4924 4.66365 48.1337 4.66365C48.5326 4.65965 48.9267 4.74995 49.283 4.92701C49.6612 5.11885 49.8577 5.49458 49.8577 6.03377C49.9343 5.94675 50.0167 5.85745 50.1048 5.76588C50.3463 5.52371 50.6164 5.31105 50.9093 5.13247C51.6211 4.69364 52.4459 4.46664 53.2849 4.47862C54.0889 4.4632 54.8855 4.63345 55.6111 4.97582C56.2752 5.29958 56.8534 5.77229 57.2995 6.35616C57.7643 6.98066 58.1038 7.68735 58.2994 8.43802C58.5231 9.28624 58.6329 10.1599 58.6258 11.0364C58.634 11.9292 58.5077 12.8183 58.2511 13.6744C58.0243 14.435 57.6521 15.1455 57.1547 15.7677C56.6753 16.3539 56.0679 16.8254 55.3778 17.1469C54.627 17.4869 53.8085 17.6564 52.9827 17.6429C52.4296 17.6586 51.8778 17.5819 51.3506 17.4159C50.972 17.2891 50.6122 17.1131 50.2806 16.8926C50.1009 16.7721 49.9352 16.6324 49.7864 16.476V19.5182C49.7864 20.0472 49.6405 20.4377 49.352 20.6783C49.0635 20.919 48.6199 21.0291 47.9912 21.0291ZM52.3655 7.50493C51.9739 7.49557 51.5864 7.58587 51.2403 7.76714C50.9146 7.94954 50.6355 8.20309 50.4243 8.5084C50.187 8.85382 50.0138 9.23819 49.9129 9.64354C49.7939 10.1146 49.7356 10.5986 49.7393 11.084C49.7393 12.1897 49.9692 13.0762 50.4289 13.7199C50.8886 14.3635 51.5127 14.6643 52.3701 14.6643C53.2275 14.6643 53.8515 14.3419 54.2848 13.6779C54.7181 13.0138 54.9491 12.1295 54.9491 11.084C54.9506 10.5999 54.8903 10.1174 54.7698 9.64808C54.6689 9.24448 54.4994 8.86068 54.2687 8.51294C54.0635 8.20721 53.7878 7.95394 53.4642 7.77396C53.1275 7.59251 52.7491 7.49986 52.3655 7.50493Z" fill="#272560"/>
</g>
<path d="M66 2V20" stroke="#00AEB8" stroke-width="2" stroke-linecap="round"/>
<defs>
<clipPath id="clip0_8_669">
<rect width="59" height="21" fill="white"/>
</clipPath>
</defs>
</svg>
